<svg width="13" height="14" viewBox="0 0 13 14" fill="none" xmlns="http://www.w3.org/2000/svg">
<path d="M1.32762 9.27348L1.97438 9.43517L1.32762 9.27348L0.95573 10.761C0.952776 10.7728 0.949803 10.7847 0.946819 10.7966C0.894496 11.0055 0.838617 11.2287 0.820287 11.416C0.800105 11.6223 0.804809 11.9704 1.08402 12.2496C1.36324 12.5289 1.71131 12.5336 1.91762 12.5134C2.10501 12.495 2.32813 12.4392 2.53705 12.3868C2.54896 12.3839 2.56083 12.3809 2.57263 12.3779L4.06018 12.006C4.08034 12.001 4.10035 11.996 4.12021 11.9911C4.41718 11.9172 4.68008 11.8517 4.91879 11.7166C5.1575 11.5814 5.34886 11.3897 5.56503 11.173C5.57949 11.1586 5.59405 11.144 5.60875 11.1293L11.2403 5.4977L11.2403 5.49769C11.2426 5.49542 11.2449 5.49315 11.2471 5.49088C11.2611 5.47693 11.2749 5.46311 11.2887 5.44942C11.5081 5.23035 11.6974 5.04147 11.8238 4.83324C12.2108 4.19556 12.2108 3.39548 11.8238 2.7578C11.6974 2.54958 11.5082 2.3607 11.2887 2.14164C11.2727 2.12575 11.2567 2.10969 11.2404 2.09347C11.2404 2.09343 11.2404 2.09339 11.2403 2.09336L11.2403 2.09335C11.224 2.07708 11.208 2.06096 11.192 2.04501C10.973 1.82551 10.7841 1.63627 10.5759 1.50988C9.93818 1.12284 9.1381 1.12284 8.50042 1.50988C8.29219 1.63627 8.10331 1.82551 7.88424 2.04501C7.86831 2.06097 7.85223 2.07708 7.83596 2.09335L2.2044 7.72491C2.1897 7.73961 2.17511 7.75417 2.16062 7.76863C1.944 7.9848 1.75223 8.17616 1.61707 8.41487C1.48192 8.65357 1.41649 8.91647 1.34258 9.21345C1.33764 9.2333 1.33266 9.25331 1.32762 9.27348Z" stroke="white" stroke-width="1.33333"/>
</svg>
