<svg width="22" height="22" viewBox="0 0 22 22" fill="none" xmlns="http://www.w3.org/2000/svg">
<path fill-rule="evenodd" clip-rule="evenodd" d="M7.05017 0.674638C8.158 0.623638 8.51122 0.612305 11.3332 0.612305C14.1552 0.612305 14.5084 0.624582 15.6153 0.674638C16.7222 0.724694 17.4778 0.901305 18.1389 1.15725C18.8312 1.41886 19.4592 1.8278 19.9787 2.35669C20.5076 2.87519 20.9156 3.5023 21.1762 4.19553C21.4331 4.85664 21.6088 5.61219 21.6598 6.71719C21.7108 7.82692 21.7221 8.18014 21.7221 11.0012C21.7221 13.8232 21.7098 14.1764 21.6598 15.2842C21.6097 16.3892 21.4331 17.1448 21.1762 17.8059C20.9156 18.4992 20.5069 19.1274 19.9787 19.6466C19.4592 20.1755 18.8312 20.5835 18.1389 20.8442C17.4778 21.1011 16.7222 21.2767 15.6172 21.3277C14.5084 21.3787 14.1552 21.3901 11.3332 21.3901C8.51122 21.3901 8.158 21.3778 7.05017 21.3277C5.94517 21.2777 5.18961 21.1011 4.5285 20.8442C3.83521 20.5835 3.20706 20.1748 2.68778 19.6466C2.15925 19.1278 1.75024 18.5 1.48928 17.8069C1.23334 17.1457 1.05767 16.3902 1.00667 15.2852C0.955669 14.1755 0.944336 13.8222 0.944336 11.0012C0.944336 8.17919 0.956614 7.82597 1.00667 6.71908C1.05672 5.61219 1.23334 4.85664 1.48928 4.19553C1.75063 3.50238 2.15995 2.87454 2.68872 2.35575C3.20726 1.82733 3.83478 1.41833 4.52756 1.15725C5.18867 0.901305 5.94422 0.725638 7.04922 0.674638H7.05017ZM15.5313 2.54464C14.4357 2.49458 14.1071 2.48419 11.3332 2.48419C8.55939 2.48419 8.23072 2.49458 7.13517 2.54464C6.12178 2.59092 5.57211 2.75997 5.20567 2.90258C4.72117 3.09147 4.37456 3.3153 4.01095 3.67892C3.66627 4.01424 3.40101 4.42246 3.23461 4.87364C3.092 5.24008 2.92295 5.78975 2.87667 6.80314C2.82661 7.89869 2.81622 8.22736 2.81622 11.0012C2.81622 13.775 2.82661 14.1037 2.87667 15.1992C2.92295 16.2126 3.092 16.7623 3.23461 17.1287C3.40084 17.5793 3.66622 17.9882 4.01095 18.3235C4.34623 18.6682 4.75517 18.9336 5.20567 19.0998C5.57211 19.2424 6.12178 19.4115 7.13517 19.4577C8.23072 19.5078 8.55845 19.5182 11.3332 19.5182C14.108 19.5182 14.4357 19.5078 15.5313 19.4577C16.5447 19.4115 17.0943 19.2424 17.4608 19.0998C17.9453 18.9109 18.2919 18.6871 18.6555 18.3235C19.0002 17.9882 19.2656 17.5793 19.4318 17.1287C19.5744 16.7623 19.7435 16.2126 19.7898 15.1992C19.8398 14.1037 19.8502 13.775 19.8502 11.0012C19.8502 8.22736 19.8398 7.89869 19.7898 6.80314C19.7435 5.78975 19.5744 5.24008 19.4318 4.87364C19.2429 4.38914 19.0191 4.04253 18.6555 3.67892C18.3202 3.33426 17.9119 3.069 17.4608 2.90258C17.0943 2.75997 16.5447 2.59092 15.5313 2.54464ZM10.0063 14.2038C10.7473 14.5123 11.5725 14.5539 12.3409 14.3216C13.1092 14.0893 13.7731 13.5974 14.2191 12.93C14.6651 12.2626 14.8655 11.461 14.7862 10.6622C14.7068 9.86346 14.3526 9.117 13.7841 8.55036C13.4216 8.18814 12.9834 7.91079 12.5009 7.73828C12.0184 7.56576 11.5036 7.50237 10.9937 7.55266C10.4838 7.60296 9.99131 7.76569 9.55182 8.02915C9.11232 8.29261 8.7367 8.65023 8.45201 9.07627C8.16732 9.50232 7.98063 9.98619 7.90538 10.493C7.83013 10.9999 7.8682 11.5171 8.01685 12.0075C8.16549 12.4979 8.42101 12.9492 8.76502 13.329C9.10902 13.7088 9.53295 14.0075 10.0063 14.2038ZM7.55734 7.2253C8.05319 6.72945 8.64186 6.33611 9.28973 6.06776C9.9376 5.7994 10.632 5.66128 11.3332 5.66128C12.0345 5.66128 12.7289 5.7994 13.3767 6.06776C14.0246 6.33611 14.6133 6.72945 15.1091 7.2253C15.605 7.72116 15.9983 8.30983 16.2667 8.9577C16.535 9.60557 16.6731 10.2999 16.6731 11.0012C16.6731 11.7024 16.535 12.3968 16.2667 13.0447C15.9983 13.6926 15.605 14.2812 15.1091 14.7771C14.1077 15.7785 12.7495 16.3411 11.3332 16.3411C9.91699 16.3411 8.55876 15.7785 7.55734 14.7771C6.55591 13.7757 5.99331 12.4174 5.99331 11.0012C5.99331 9.58496 6.55591 8.22673 7.55734 7.2253ZM17.8574 6.45653C17.9803 6.34061 18.0787 6.20123 18.1467 6.04661C18.2148 5.892 18.2511 5.72531 18.2536 5.55641C18.256 5.3875 18.2246 5.21982 18.1611 5.06329C18.0976 4.90676 18.0033 4.76456 17.8839 4.64512C17.7644 4.52567 17.6222 4.43141 17.4657 4.3679C17.3092 4.3044 17.1415 4.27295 16.9726 4.27541C16.8037 4.27787 16.637 4.3142 16.4824 4.38224C16.3277 4.45028 16.1884 4.54865 16.0724 4.67153C15.847 4.9105 15.7236 5.22792 15.7284 5.55641C15.7332 5.88489 15.8658 6.19858 16.0981 6.43088C16.3304 6.66318 16.6441 6.7958 16.9726 6.80059C17.3011 6.80538 17.6185 6.68196 17.8574 6.45653Z" fill="white"/>
</svg>
