<svg width="135" height="53" viewBox="0 0 135 53" fill="none" xmlns="http://www.w3.org/2000/svg">
<path d="M78.3066 31.1322C78.3066 32.0126 78.0823 32.8017 77.6338 33.4995C77.1853 34.1806 76.5789 34.7205 75.8147 35.1192C75.0672 35.5013 74.2449 35.6923 73.3478 35.6923H65V18H73.5222C74.3528 18 75.0672 18.2243 75.6652 18.6728C76.2799 19.1047 76.745 19.6696 77.0607 20.3673C77.3929 21.0484 77.559 21.7627 77.559 22.5103C77.559 23.3908 77.3348 24.2048 76.8862 24.9523C76.4377 25.6999 75.8147 26.2564 75.0173 26.6219C76.0307 26.9209 76.8281 27.4774 77.4095 28.2914C78.0076 29.1055 78.3066 30.0524 78.3066 31.1322ZM76.5623 30.8332C76.5623 30.2351 76.4294 29.6869 76.1636 29.1885C75.8978 28.6735 75.5323 28.2582 75.0672 27.9426C74.6186 27.6269 74.1036 27.4691 73.5222 27.4691H66.7443V34.1723H73.3478C73.9458 34.1723 74.4857 34.0144 74.9675 33.6988C75.4493 33.3832 75.8313 32.9762 76.1138 32.4778C76.4128 31.9628 76.5623 31.4146 76.5623 30.8332ZM66.7443 19.52V26.0488H72.8245C73.4059 26.0488 73.9209 25.8992 74.3694 25.6002C74.818 25.2846 75.1752 24.8776 75.441 24.3792C75.7068 23.8808 75.8397 23.3492 75.8397 22.7844C75.8397 22.1863 75.7151 21.6464 75.4659 21.1647C75.2167 20.6663 74.8761 20.2676 74.4442 19.9686C74.0123 19.6696 73.5222 19.52 72.974 19.52H66.7443Z" fill="white"/>
<path d="M81.2225 35.6923V22.7096H87.7014C88.4323 22.7096 89.047 22.8675 89.5454 23.1831C90.0437 23.4821 90.4175 23.8725 90.6667 24.3543C90.9325 24.836 91.0654 25.351 91.0654 25.8992C91.0654 26.597 90.8993 27.2282 90.567 27.7931C90.2348 28.3413 89.753 28.7566 89.1217 29.039C89.8693 29.255 90.4757 29.6454 90.9408 30.2102C91.406 30.775 91.6385 31.4561 91.6385 32.2535C91.6385 32.9512 91.4641 33.5576 91.1152 34.0726C90.783 34.5876 90.3178 34.9863 89.7198 35.2687C89.1383 35.5511 88.4655 35.6923 87.7014 35.6923H81.2225ZM82.8422 34.4713H87.6515C88.0835 34.4713 88.4738 34.3633 88.8227 34.1473C89.1882 33.9148 89.4706 33.6157 89.6699 33.2503C89.8859 32.8848 89.9939 32.5027 89.9939 32.104C89.9939 31.6721 89.8942 31.2817 89.6949 30.9328C89.4955 30.5674 89.2297 30.2766 88.8975 30.0607C88.5652 29.8447 88.1831 29.7367 87.7512 29.7367H82.8422V34.4713ZM82.8422 28.5655H87.2528C87.6848 28.5655 88.0668 28.4493 88.3991 28.2167C88.7313 27.9841 88.9888 27.6851 89.1716 27.3196C89.3543 26.9541 89.4457 26.572 89.4457 26.1733C89.4457 25.5753 89.2463 25.052 88.8476 24.6035C88.4655 24.1549 87.9672 23.9307 87.3525 23.9307H82.8422V28.5655Z" fill="white"/>
<path d="M100.19 35.9415C99.2592 35.9415 98.3954 35.7671 97.598 35.4182C96.8006 35.0527 96.1112 34.5627 95.5297 33.948C94.9483 33.3167 94.4915 32.5941 94.1592 31.7801C93.8436 30.9661 93.6858 30.0939 93.6858 29.1636C93.6858 27.9509 93.9599 26.8378 94.5081 25.8245C95.0729 24.8111 95.8454 24.0054 96.8255 23.4074C97.8057 22.7927 98.9187 22.4854 100.165 22.4854C101.444 22.4854 102.557 22.7927 103.504 23.4074C104.467 24.022 105.223 24.836 105.771 25.8494C106.32 26.8462 106.594 27.9426 106.594 29.1387C106.594 29.2716 106.594 29.4045 106.594 29.5374C106.594 29.6537 106.585 29.745 106.569 29.8115H95.455C95.538 30.7418 95.7955 31.5724 96.2275 32.3034C96.676 33.0177 97.2491 33.5908 97.9469 34.0228C98.6612 34.4381 99.4337 34.6457 100.264 34.6457C101.112 34.6457 101.909 34.4298 102.657 33.9978C103.421 33.5659 103.952 33.0011 104.251 32.3034L105.722 32.7021C105.456 33.3167 105.049 33.8732 104.5 34.3716C103.952 34.87 103.304 35.2604 102.557 35.5428C101.826 35.8086 101.037 35.9415 100.19 35.9415ZM95.4051 28.5905H104.999C104.932 27.6436 104.675 26.8129 104.226 26.0986C103.794 25.3843 103.221 24.8277 102.507 24.429C101.809 24.0137 101.037 23.8061 100.19 23.8061C99.3423 23.8061 98.5698 24.0137 97.8721 24.429C97.1744 24.8277 96.6012 25.3926 96.1527 26.1235C95.7208 26.8378 95.4716 27.6602 95.4051 28.5905Z" fill="white"/>
<path d="M115.836 35.9415C114.757 35.9415 113.785 35.6591 112.921 35.0943C112.074 34.5294 111.401 33.8317 110.902 33.0011V41H109.208V22.7096H110.728V25.2264C111.243 24.4124 111.932 23.7562 112.796 23.2579C113.66 22.7429 114.582 22.4854 115.562 22.4854C116.459 22.4854 117.282 22.6764 118.029 23.0585C118.777 23.424 119.425 23.9224 119.973 24.5536C120.521 25.1849 120.945 25.9075 121.244 26.7216C121.559 27.519 121.717 28.3496 121.717 29.2134C121.717 30.4261 121.468 31.5475 120.97 32.5775C120.488 33.5908 119.807 34.4048 118.926 35.0195C118.046 35.6342 117.016 35.9415 115.836 35.9415ZM115.363 34.4464C116.077 34.4464 116.717 34.3052 117.282 34.0228C117.846 33.7237 118.328 33.325 118.727 32.8267C119.142 32.3283 119.458 31.7718 119.674 31.1571C119.89 30.5258 119.998 29.8779 119.998 29.2134C119.998 28.5157 119.873 27.8512 119.624 27.2199C119.391 26.5887 119.051 26.0321 118.602 25.5504C118.154 25.0686 117.639 24.6865 117.057 24.4041C116.476 24.1217 115.845 23.9805 115.164 23.9805C114.732 23.9805 114.283 24.0636 113.818 24.2297C113.353 24.3958 112.904 24.6367 112.472 24.9523C112.057 25.2514 111.708 25.5919 111.426 25.974C111.143 26.3561 110.969 26.7631 110.902 27.195V31.182C111.168 31.7967 111.525 32.3532 111.974 32.8516C112.423 33.3333 112.938 33.7237 113.519 34.0228C114.117 34.3052 114.732 34.4464 115.363 34.4464Z" fill="white"/>
<path d="M124.986 22.7096L128.799 27.7931L128.998 28.1668L129.197 27.7931L132.985 22.7096H134.904L129.97 29.2384L134.904 35.6923H132.985L129.197 30.6338L128.998 30.2849L128.799 30.6338L125.011 35.6923H123.092L128.001 29.2384L123.092 22.7096H124.986Z" fill="white"/>
<path fill-rule="evenodd" clip-rule="evenodd" d="M50.7504 26.6351C50.7504 22.8276 47.5871 19.7064 43.6417 19.7064C43.1448 19.7064 42.7419 19.3035 42.7419 18.8066C42.7419 18.3096 43.1448 17.9067 43.6417 17.9067C48.5423 17.9067 52.55 21.7954 52.55 26.6351C52.55 31.4748 48.5423 35.3634 43.6417 35.3634C43.1448 35.3634 42.7419 34.9606 42.7419 34.4636C42.7419 33.9667 43.1448 33.5638 43.6417 33.5638C47.5871 33.5638 50.7504 30.4425 50.7504 26.6351Z" fill="white"/>
<path fill-rule="evenodd" clip-rule="evenodd" d="M1.79966 26.6349C1.79966 30.4424 4.96293 33.5636 8.90832 33.5636C9.40528 33.5636 9.80815 33.9665 9.80815 34.4635C9.80815 34.9604 9.40528 35.3633 8.90832 35.3633C4.00778 35.3633 -1.69978e-07 31.4746 -3.81528e-07 26.6349C-5.93079e-07 21.7952 4.00778 17.9066 8.90832 17.9066C9.40528 17.9066 9.80815 18.3094 9.80815 18.8064C9.80815 19.3034 9.40528 19.7062 8.90832 19.7062C4.96293 19.7062 1.79966 22.8275 1.79966 26.6349Z" fill="white"/>
<path fill-rule="evenodd" clip-rule="evenodd" d="M26.275 1.79966C22.4861 1.79966 19.3464 5.02434 19.3464 9.08829C19.3464 9.58525 18.9435 9.98812 18.4465 9.98812C17.9496 9.98812 17.5467 9.58525 17.5467 9.08829C17.5467 4.10751 21.4168 0 26.275 0C31.1333 0 35.0034 4.10751 35.0034 9.08829C35.0034 9.58525 34.6005 9.98812 34.1036 9.98812C33.6066 9.98812 33.2037 9.58525 33.2037 9.08829C33.2037 5.02434 30.064 1.79966 26.275 1.79966Z" fill="white"/>
<path fill-rule="evenodd" clip-rule="evenodd" d="M24.0255 9.98804C24.5224 9.98804 24.9253 10.3909 24.9253 10.8879C24.9253 18.6959 18.5542 25.0152 10.708 25.0152C10.211 25.0152 9.80815 24.6123 9.80815 24.1154C9.80815 23.6184 10.211 23.2155 10.708 23.2155C17.5718 23.2155 23.1256 17.6905 23.1256 10.8879C23.1256 10.3909 23.5285 9.98804 24.0255 9.98804Z" fill="white"/>
<path fill-rule="evenodd" clip-rule="evenodd" d="M42.7419 24.2952C42.7419 24.7922 42.3391 25.1951 41.8421 25.1951C33.9844 25.1951 27.6248 18.7837 27.6248 10.8878C27.6248 10.3908 28.0277 9.98794 28.5246 9.98794C29.0216 9.98794 29.4245 10.3908 29.4245 10.8878C29.4245 17.8013 34.9897 23.3954 41.8421 23.3954C42.3391 23.3954 42.7419 23.7983 42.7419 24.2952Z" fill="white"/>
<path fill-rule="evenodd" clip-rule="evenodd" d="M28.5246 43.1018C28.0277 43.1018 27.6248 42.6989 27.6248 42.202C27.6248 34.35 33.9901 27.9847 41.8421 27.9847C42.3391 27.9847 42.742 28.3875 42.742 28.8845C42.742 29.3815 42.3391 29.7843 41.8421 29.7843C34.9841 29.7843 29.4245 35.3439 29.4245 42.202C29.4245 42.6989 29.0216 43.1018 28.5246 43.1018Z" fill="white"/>
<path fill-rule="evenodd" clip-rule="evenodd" d="M9.80817 28.7946C9.80817 28.2976 10.211 27.8948 10.708 27.8948C18.56 27.8948 24.9253 34.2601 24.9253 42.1121C24.9253 42.6091 24.5224 43.0119 24.0255 43.0119C23.5285 43.0119 23.1257 42.6091 23.1257 42.1121C23.1257 35.254 17.5661 29.6944 10.708 29.6944C10.211 29.6944 9.80817 29.2916 9.80817 28.7946Z" fill="white"/>
<path fill-rule="evenodd" clip-rule="evenodd" d="M26.2751 51.2003C30.064 51.2003 33.2038 47.9757 33.2038 43.9117C33.2038 43.4148 33.6066 43.0119 34.1036 43.0119C34.6006 43.0119 35.0034 43.4148 35.0034 43.9117C35.0034 48.8925 31.1333 53 26.2751 53C21.4168 53 17.5467 48.8925 17.5467 43.9117C17.5467 43.4148 17.9496 43.0119 18.4465 43.0119C18.9435 43.0119 19.3464 43.4148 19.3464 43.9117C19.3464 47.9757 22.4861 51.2003 26.2751 51.2003Z" fill="white"/>
</svg>
