<svg width="22" height="19" viewBox="0 0 22 19" fill="none" xmlns="http://www.w3.org/2000/svg">
<path d="M21.4446 2.66358C20.6559 3.01303 19.8088 3.24914 18.9182 3.35586C19.8371 2.806 20.5246 1.94058 20.8524 0.921082C19.989 1.43391 19.0441 1.79488 18.0587 1.9883C17.3961 1.28079 16.5184 0.811834 15.5619 0.654251C14.6054 0.496669 13.6237 0.659274 12.7691 1.11682C11.9145 1.57437 11.2349 2.30126 10.8358 3.18464C10.4366 4.06801 10.3403 5.05846 10.5617 6.00219C8.81231 5.91436 7.10093 5.45966 5.53862 4.6676C3.97632 3.87555 2.59802 2.76384 1.49317 1.40464C1.11539 2.0563 0.898167 2.81186 0.898167 3.61653C0.897745 4.34091 1.07613 5.0542 1.4175 5.69311C1.75886 6.33201 2.25265 6.87678 2.85506 7.27908C2.15643 7.25685 1.47321 7.06808 0.862278 6.72847V6.78514C0.862207 7.80111 1.21364 8.78583 1.85695 9.57219C2.50026 10.3586 3.39582 10.8981 4.39167 11.0994C3.74357 11.2748 3.0641 11.3006 2.40456 11.1749C2.68553 12.0491 3.23283 12.8136 3.96985 13.3612C4.70686 13.9089 5.5967 14.2124 6.51478 14.2292C4.95629 15.4527 3.03156 16.1163 1.05022 16.1134C0.699249 16.1135 0.348572 16.093 0 16.052C2.01117 17.3451 4.35232 18.0314 6.74333 18.0287C14.8372 18.0287 19.2619 11.3251 19.2619 5.51108C19.2619 5.32219 19.2572 5.13141 19.2487 4.94253C20.1094 4.32011 20.8523 3.54937 21.4427 2.66641L21.4446 2.66358Z" fill="white"/>
</svg>
